<svg fill="#000000" xmlns="http://www.w3.org/2000/svg" viewBox="0 0 100 100" width="100px" height="100px"><path d="M 30.960938 17.921875 C 23.792938 17.921875 17.960938 23.753875 17.960938 30.921875 L 17.960938 69.921875 C 17.960938 77.089875 23.792938 82.921875 30.960938 82.921875 L 69.960938 82.921875 C 77.128938 82.921875 82.960938 77.089875 82.960938 69.921875 L 82.960938 30.921875 C 82.960938 23.753875 77.128938 17.921875 69.960938 17.921875 L 30.960938 17.921875 z M 30.960938 19.921875 L 69.960938 19.921875 C 76.025937 19.921875 80.960938 24.856875 80.960938 30.921875 L 80.960938 69.921875 C 80.960938 75.986875 76.025937 80.921875 69.960938 80.921875 L 30.960938 80.921875 C 24.895937 80.921875 19.960938 75.986875 19.960938 69.921875 L 19.960938 30.921875 C 19.960938 24.856875 24.895937 19.921875 30.960938 19.921875 z M 33.798828 22.921875 C 27.822828 22.921875 22.960937 27.781813 22.960938 33.757812 L 22.960938 67.083984 C 22.960938 73.059984 27.822828 77.921875 33.798828 77.921875 L 67.123047 77.921875 C 73.099047 77.921875 77.960938 73.059984 77.960938 67.083984 L 77.960938 48.421875 C 77.960938 48.145875 77.736938 47.921875 77.460938 47.921875 C 77.184938 47.921875 76.960938 48.145875 76.960938 48.421875 L 76.960938 67.083984 C 76.960938 72.507984 72.547047 76.921875 67.123047 76.921875 L 33.798828 76.921875 C 28.374828 76.921875 23.960937 72.507984 23.960938 67.083984 L 23.960938 33.757812 C 23.960938 28.333813 28.374828 23.921875 33.798828 23.921875 L 67.460938 23.921875 C 67.736937 23.921875 67.960938 23.697875 67.960938 23.421875 C 67.960938 23.145875 67.736938 22.921875 67.460938 22.921875 L 33.798828 22.921875 z M 30.984375 33.576172 C 30.805375 33.576172 30.641734 33.671172 30.552734 33.826172 C 30.462734 33.980172 30.461781 34.171172 30.550781 34.326172 L 38.902344 48.808594 L 30.552734 63.267578 C 30.462734 63.422578 30.461781 63.613578 30.550781 63.767578 C 30.640781 63.921578 30.806375 64.017578 30.984375 64.017578 L 34.464844 64.019531 C 34.643844 64.019531 34.808437 63.924531 34.898438 63.769531 L 41.212891 52.816406 L 47.527344 63.771484 C 47.617344 63.926484 47.783891 64.021484 47.962891 64.021484 L 51.441406 64.017578 C 51.620406 64.017578 51.786953 63.922578 51.876953 63.767578 C 51.965953 63.612578 51.965 63.422578 51.875 63.267578 L 43.523438 48.810547 L 51.878906 34.326172 C 51.967906 34.171172 51.966953 33.980172 51.876953 33.826172 C 51.787953 33.671172 51.622359 33.576172 51.443359 33.576172 L 47.990234 33.576172 C 47.811234 33.576172 47.647594 33.671172 47.558594 33.826172 L 41.214844 44.808594 L 34.871094 33.826172 C 34.782094 33.671172 34.6165 33.576172 34.4375 33.576172 L 30.984375 33.576172 z M 31.849609 34.576172 L 34.148438 34.576172 L 40.779297 46.058594 C 40.956297 46.368594 41.466531 46.368594 41.644531 46.058594 L 48.277344 34.576172 L 50.576172 34.576172 L 42.513672 48.560547 C 42.424672 48.715547 42.425625 48.905547 42.515625 49.060547 L 50.576172 63.017578 L 48.251953 63.019531 L 41.646484 51.566406 C 41.556484 51.411406 41.391891 51.316406 41.212891 51.316406 C 41.033891 51.316406 40.868297 51.411406 40.779297 51.566406 L 34.175781 63.021484 L 31.849609 63.019531 L 39.912109 49.060547 C 40.002109 48.905547 40.001109 48.714547 39.912109 48.560547 L 31.849609 34.576172 z M 77.460938 36.921875 C 77.184938 36.921875 76.960938 37.145875 76.960938 37.421875 L 76.960938 39.421875 C 76.960938 39.697875 77.184937 39.921875 77.460938 39.921875 C 77.736937 39.921875 77.960938 39.697875 77.960938 39.421875 L 77.960938 37.421875 C 77.960938 37.145875 77.736938 36.921875 77.460938 36.921875 z M 65.179688 37.921875 C 64.903688 37.921875 64.679688 38.145875 64.679688 38.421875 L 64.679688 45.892578 C 64.355688 45.817578 64.026406 45.752172 63.691406 45.701172 C 63.129406 45.613172 62.478766 45.568359 61.759766 45.568359 C 60.454766 45.568359 59.226375 45.784031 58.109375 46.207031 C 56.983375 46.632031 55.985484 47.262078 55.146484 48.080078 C 54.306484 48.899078 53.645734 49.918469 53.177734 51.105469 C 52.712734 52.287469 52.476562 53.638094 52.476562 55.121094 C 52.476562 56.446094 52.646422 57.682922 52.982422 58.794922 C 53.322422 59.916922 53.817172 60.904422 54.451172 61.732422 C 55.091172 62.569422 55.861234 63.228453 56.740234 63.689453 C 57.624234 64.153453 58.622031 64.388672 59.707031 64.388672 C 61.083031 64.388672 62.282531 64.103062 63.269531 63.539062 C 63.848531 63.208062 64.380328 62.827344 64.861328 62.402344 L 64.861328 63.53125 C 64.860328 63.80825 65.082375 64.033203 65.359375 64.033203 L 68.419922 64.033203 C 68.695922 64.033203 68.919922 63.809203 68.919922 63.533203 L 68.919922 38.421875 C 68.919922 38.145875 68.695922 37.921875 68.419922 37.921875 L 65.179688 37.921875 z M 65.679688 38.921875 L 67.919922 38.921875 L 67.919922 63.033203 L 65.859375 63.033203 L 65.859375 61.185547 C 65.859375 60.976547 65.72825 60.789797 65.53125 60.716797 C 65.33425 60.642797 65.114516 60.699375 64.978516 60.859375 C 64.371516 61.570375 63.629484 62.180875 62.771484 62.671875 C 61.938484 63.147875 60.907031 63.388672 59.707031 63.388672 C 58.785031 63.388672 57.942125 63.192688 57.203125 62.804688 C 56.453125 62.410688 55.794141 61.845 55.244141 61.125 C 54.683141 60.393 54.244453 59.510906 53.939453 58.503906 C 53.631453 57.484906 53.476562 56.347141 53.476562 55.119141 C 53.476562 53.763141 53.688422 52.536656 54.107422 51.472656 C 54.523422 50.416656 55.107703 49.516875 55.845703 48.796875 C 56.585703 48.074875 57.465891 47.518578 58.462891 47.142578 C 59.466891 46.761578 60.575766 46.568359 61.759766 46.568359 C 62.426766 46.568359 63.025109 46.609453 63.537109 46.689453 C 64.054109 46.769453 64.560969 46.879578 65.042969 47.017578 C 65.194969 47.059578 65.355469 47.0325 65.480469 46.9375 C 65.605469 46.8425 65.679687 46.694109 65.679688 46.537109 L 65.679688 38.921875 z M 77.460938 40.921875 C 77.184938 40.921875 76.960938 41.145875 76.960938 41.421875 L 76.960938 45.421875 C 76.960938 45.697875 77.184937 45.921875 77.460938 45.921875 C 77.736937 45.921875 77.960938 45.697875 77.960938 45.421875 L 77.960938 41.421875 C 77.960938 41.145875 77.736938 40.921875 77.460938 40.921875 z M 62.119141 48.166016 C 60.185141 48.166016 58.617031 48.778328 57.457031 49.986328 C 56.301031 51.188328 55.714844 52.915141 55.714844 55.119141 C 55.714844 57.075141 56.097516 58.675047 56.853516 59.873047 C 57.655516 61.145047 58.917469 61.792969 60.605469 61.792969 C 61.731469 61.792969 62.732125 61.51575 63.578125 60.96875 C 64.385125 60.44575 65.051547 59.874438 65.560547 59.273438 C 65.636547 59.182437 65.679688 59.069172 65.679688 58.951172 L 65.679688 49.126953 C 65.679688 48.923953 65.556188 48.740062 65.367188 48.664062 C 64.923187 48.483063 64.410797 48.352391 63.841797 48.275391 C 63.294797 48.203391 62.714141 48.166016 62.119141 48.166016 z M 62.117188 49.164062 C 62.668188 49.164062 63.204031 49.198625 63.707031 49.265625 C 64.061031 49.313625 64.385734 49.385516 64.677734 49.478516 L 64.677734 58.763672 C 64.247864 59.241313 63.696696 59.70025 63.035156 60.126953 C 62.354156 60.566953 61.535469 60.791016 60.605469 60.791016 C 59.264469 60.791016 58.314219 60.315844 57.699219 59.339844 C 57.046219 58.303844 56.714844 56.884141 56.714844 55.119141 C 56.714844 53.181141 57.206734 51.688687 58.177734 50.679688 C 59.155734 49.660688 60.443188 49.164063 62.117188 49.164062 z"/></svg>